<?xml version="1.0" encoding="utf-8"?>
<!-- Generator: Adobe Illustrator 27.8.1, SVG Export Plug-In . SVG Version: 6.00 Build 0)  -->
<svg version="1.1" id="Layer_1" xmlns="http://www.w3.org/2000/svg" xmlns:xlink="http://www.w3.org/1999/xlink" x="0px" y="0px"
	 viewBox="0 0 1000 1000" style="enable-background:new 0 0 1000 1000;" xml:space="preserve">
<style type="text/css">
	.st0{fill:#FFFFFF;}
</style>
<g>
	<path class="st0" d="M110.94,387.6c0.37,3.53,3.56,5.85,7.93,5.85c4.19,0,7.2-2.32,7.2-5.51c0-2.77-1.82-4.42-6.12-5.56l-4.3-1.11
		c-6.09-1.58-8.92-4.64-8.92-9.6c0-6.15,4.99-10.37,12.07-10.37c7.01,0,11.82,4.22,11.98,10.37h-5.01c-0.3-3.56-3.04-5.7-7.04-5.7
		s-6.74,2.17-6.74,5.33c0,2.52,1.75,4,6.02,5.14l3.66,0.96c6.81,1.73,9.63,4.67,9.63,9.88c0,6.67-4.94,10.84-12.81,10.84
		c-7.36,0-12.33-4.07-12.65-10.52H110.94z"/>
	<path class="st0" d="M185.36,384.53c0,5.09,2.99,8.67,8.28,8.67c5.29,0,8.3-3.58,8.3-8.67v-22.64h5.13V385
		c0,7.68-5.1,13.11-13.43,13.11s-13.43-5.43-13.43-13.11v-23.11h5.15V384.53z"/>
	<path class="st0" d="M262.61,397.52h-5.15v-35.63h13.04c6.83,0,11.08,4.25,11.08,10.89c0,4.81-2.39,8.72-6.44,10.17l7.45,14.57
		h-5.96l-6.76-13.7h-7.27V397.52z M262.61,379.35h7.4c3.98,0,6.28-2.35,6.28-6.42c0-3.98-2.44-6.39-6.42-6.39h-7.27V379.35z"/>
	<path class="st0" d="M349.41,387.89h-12.65l-3.04,9.63h-5.36l11.98-35.63h5.56l11.98,35.63h-5.45L349.41,387.89z M338.07,383.45
		h10.03l-4.94-15.63h-0.14L338.07,383.45z"/>
	<path class="st0" d="M408.59,388.39c0.07,2.96,2.07,4.99,4.94,4.99c3.38,0,5.22-2.17,5.22-6.25v-25.23h5.15v25.26
		c0,7.06-3.86,11.16-10.32,11.16c-5.98,0-10.05-4-10.05-9.92H408.59z"/>
	<path class="st0" d="M532.37,388.39c0.07,2.96,2.07,4.99,4.94,4.99c3.38,0,5.22-2.17,5.22-6.25v-25.23h5.15v25.26
		c0,7.06-3.86,11.16-10.32,11.16c-5.98,0-10.05-4-10.05-9.92H532.37z"/>
	<path class="st0" d="M616.47,387.89h-12.65l-3.04,9.63h-5.36l11.98-35.63h5.56l11.98,35.63h-5.45L616.47,387.89z M605.13,383.45
		h10.03l-4.94-15.63h-0.14L605.13,383.45z"/>
	<path class="st0" d="M684.78,361.89c9.89,0,15.71,6.52,15.71,17.75c0,11.26-5.82,17.87-15.71,17.87h-11.89v-35.63H684.78z
		 M678.04,392.73h6.25c7.04,0,10.95-4.62,10.95-13.04c0-8.39-3.91-13.04-10.95-13.04h-6.25V392.73z"/>
	<path class="st0" d="M771.85,397.52v-15.78h-17.04v15.78h-5.15v-35.63h5.15v15.06h17.04v-15.06H777v35.63H771.85z"/>
	<path class="st0" d="M845.95,387.89H833.3l-3.04,9.63h-5.36l11.98-35.63h5.56l11.98,35.63h-5.45L845.95,387.89z M834.62,383.45
		h10.03l-4.94-15.63h-0.14L834.62,383.45z"/>
	<path class="st0" d="M908.56,397.52l-11.84-35.63h5.59l9.04,29.4h0.14l9.06-29.4h5.5l-11.84,35.63H908.56z"/>
</g>
<path class="st0" d="M493.36,151.38h7.69V49.04h-31.93c0,0-150.64-45.4-204.68,66.3s23.06,166.47,102.33,224.84h98.25
	c0,0-123.11-91.88-150.5-121.07c-22.73-24.23-42.16-168.63,109.9-148.45C424.42,70.66,484.71,74.51,493.36,151.38z"/>
<path class="st0" d="M471.44,424.5h75.13c0,0,101.25,155.3-53.21,261.36c-14.19,9.74-31.76,20.03-52.37,23.3
	C170.39,752.15,143.36,508.1,229.84,424.5h14.32c0,0-99.36,138.12,28.44,234.45c0,0,103.05,71.82,210.67-22.34
	C483.27,636.61,575.39,532.84,471.44,424.5z"/>
<path class="st0" d="M582.6,216.59H766v8.65c0,0-61.26-3.6-64.5,51.53v63.42h-55.49l0.36-61.8c0,0,0-54.59-63.78-52.79V216.59z"/>
<path class="st0" d="M652.33,424.5h42.48c3.5,0,6.34,2.83,6.35,6.34l0.71,337.03c0,0.26-0.01,0.52-0.05,0.78
	c-1.11,8.93-22.74,167.54-162.64,168.24c0,0-53.04-1.59-72.02-11.65c-2.76-1.46-4.07-4.68-3.09-7.65h0
	c1.04-3.12,4.29-4.95,7.49-4.17c27.96,6.78,152.01,27.02,172.6-141.17c0.03-0.26,0.05-0.52,0.05-0.78l1.77-340.64
	C646,427.32,648.84,424.5,652.33,424.5z"/>
</svg>
